# xmcd
#
# Track frame offsets:
#	182
#	23440
#	37990
#	50815
#	69940
#	93790
#	109465
#	126490
#	145990
#	165115
#	178315
#	204490
#
# Disc length: 2922 seconds
#
# Revision: 4
# Processed by: cddbd v1.4PL0 Copyright (c) Steve Scherf et al.
# Submitted via: MusicWizard 6.0.0
#
DISCID=a20b680c
DTITLE=Lee Peggy - Miss Peggy Lee Sings The Blues
DYEAR=1989
DGENRE=Vocal weibl.
TTITLE0=See See Rider
TTITLE1=Basin Street Blues
TTITLE2=Squeeze Mee
TTITLE3=You Don't Know
TTITLE4=Fine And Mellow
TTITLE5=Baby Please Come Home
TTITLE6=Kansas City
TTITLE7=Birmingham Jail
TTITLE8=Love Me
TTITLE9=Beale Street
TTITLE10=Tain't Nobody's Bizness
TTITLE11=God Bless the Child
EXTD=Peggy Lee voc - Mike Renzi p - John Chiodini g - Jay Leonhart b - Grady Tate dr - Mark Sherman per
EXTD=c;
EXTT0=
EXTT1=
EXTT2=
EXTT3=
EXTT4=
EXTT5=
EXTT6=
EXTT7=
EXTT8=
EXTT9=
EXTT10=
EXTT11=
PLAYORDER=
